<?xml version="1.0" encoding="utf-8"?>
<!-- Generator: Adobe Illustrator 26.2.1, SVG Export Plug-In . SVG Version: 6.00 Build 0)  -->
<svg version="1.1" id="Layer_1" xmlns="http://www.w3.org/2000/svg" xmlns:xlink="http://www.w3.org/1999/xlink" x="0px" y="0px"
	 viewBox="0 0 512 512" style="enable-background:new 0 0 512 512;" xml:space="preserve">
<style type="text/css">
	.st0{fill:#565656;stroke:#333333;stroke-miterlimit:10;}
</style>
<path class="st0" d="M34.4,32.1C51.2,33.3,64,47.8,64,64.6V400c0,8.8,7.2,16,16,16h399.4c16.4,0,31.4,13.3,32.6,29.7
	c1.3,18.7-13.5,34.3-31.9,34.3H80c-44.2,0-80-35.8-80-80V64C0,45.5,15.6,30.7,34.4,32.1z"/>
<g>
	<g>
		<g>
			<g>
				<path class="st0" d="M464.7,373.1c-5.4,0-11-2.2-15.7-6.1c-5.9-4.8-11.4-10-16.4-15.5c-16.2-17.5-28.2-38-36.9-62.7
					c-7.1-20.2-13.9-42.8-21.2-71c-1.6-6.1-3.1-12.2-4.6-18.2c-5.5-22-11.1-44.7-18.9-66.2c-0.9-2.6-1.6-4.5-2.3-6.2
					c-0.2-0.4-0.3-0.8-0.4-1.2l0,0l-0.3-0.7c-1.1-2.6-2.2-5.2-3.4-7.7l-0.1-0.1c-0.6-1.3-1.3-2.6-2.2-4.1c-0.1-0.2-0.2-0.4-0.4-0.6
					c-0.2-0.3-0.4-0.6-0.6-0.9c-0.1-0.1-0.2-0.2-0.2-0.2c-0.3-0.3-0.5-0.5-0.6-0.6s-0.3-0.3-0.4-0.4l-0.1-0.1
					c-0.2-0.1-0.3-0.2-0.5-0.3c-0.2-0.1-0.5-0.2-0.7-0.3c-0.2-0.1-0.5-0.2-0.7-0.2c-0.1,0-0.3-0.1-0.4-0.1c-0.7,0.1-1.4,0.1-2.3,0.1
					c-0.4,0-0.7,0-1.1,0c-0.5,0.1-1,0.2-1.4,0.3c-0.2,0-0.4,0.1-0.6,0.1c-0.5,0.1-1.1,0.3-1.7,0.5c-0.9,0.8-1.7,1.3-2.5,1.7
					c-0.3,0.2-0.6,0.4-1,0.6c-0.8,0.5-2.1,1.4-2.6,1.8c-0.3,0.4-0.6,0.8-0.8,1.1c0,0,0,0.1-0.1,0.1c-3.3,5.6-5.7,10.1-7.7,14.6
					c-0.6,1.3-1.1,2.7-1.7,3.9c-0.1,0.1-0.1,0.2-0.2,0.3c-0.7,2-1.3,4-2,6.2c-2,6.8-3.9,13.8-5.5,20.7c-1.5,6-2.7,12.1-3.9,18
					c-0.9,4.3-1.8,8.8-2.8,13.2c-2,9-5.4,18.2-10.4,28.1c-9,18.1-20.8,28.7-35,31.5c-3.2,0.6-6.6,1-9.9,1c-10.7,0-21.7-3.3-31-9.4
					c-7.6-4.9-12.6-11.2-17-17.3c0,0-0.2-0.3-0.4-0.4c-0.1,0-0.1-0.1-0.2-0.1h-0.2h-0.3c-0.2,0-0.3,0-0.5,0c-0.1,0-0.2,0-0.3,0
					c-0.2,0.1-0.5,0.1-0.7,0.2c-0.2,0.1-0.5,0.1-0.7,0.2c-0.2,0.1-0.7,0.2-1.2,0.4l-0.8,0.3c-0.2,0.1-0.4,0.2-0.6,0.3
					c-0.5,0.2-1,0.5-1.3,0.7c-0.2,0.1-0.4,0.3-0.6,0.4c-0.4,0.3-0.8,0.6-1.3,0.9c-0.2,0.2-0.4,0.4-0.6,0.5c-0.1,0.1-0.1,0.2-0.2,0.3
					c-0.3,0.4-0.7,1-1.1,1.5c0,0,0,0.1-0.1,0.1c-0.4,0.7-0.8,1.6-1.2,2.4c0,0-0.2,0.3-0.2,0.4v0.1c-0.9,2.6-1.7,5.4-2.4,8.3
					c-1.7,6.6-3.1,13.8-4.1,21.3c0,0.3-0.1,0.5-0.1,0.8c0,0.5-0.2,1.4-0.2,2v0.3c0,0.1,0,0.2,0,0.3c0,0.4-0.1,0.8-0.1,1
					c-0.1,1-0.2,1.9-0.3,2.9c-0.1,0.9-0.2,1.8-0.3,2.7c-0.6,5.3-1.3,10.6-1.9,15.1c-1.2,9-2.8,16.7-4.7,23.5
					c-4.6,15.6-12.2,29.2-22.1,39.4c-11,11.4-24.7,18.3-39.4,19.8c-0.6,0.1-1.2,0.1-1.8,0.1c-11.2,0-19.5-11.2-20.3-21.7v-0.1
					c-0.6-12.1,8.5-20.1,18.2-22.3c0.4-0.2,0.9-0.3,1.5-0.4c0.4-0.1,1.5-0.2,1.8-0.3h0.1l0,0c0.6-0.1,1.2-0.4,1.9-0.6l0.2-0.1
					c0.1,0,0.2-0.1,0.3-0.2c0.9-0.5,1.8-1,2.6-1.6c0.4-0.3,0.9-0.6,1.3-0.9c0.1-0.1,0.2-0.2,0.3-0.3c0.1-0.1,0.3-0.2,0.4-0.4
					l0.2-0.2l0.2-0.2c0.8-0.7,1.7-1.6,2.5-2.6c0.3-0.4,0.7-0.8,1.1-1.3s0.9-1.1,1.4-1.7c0.1-0.2,0.4-0.6,0.4-0.6
					c1.5-2.3,3-4.9,4.6-8.2c0.4-0.9,0.9-1.8,1.3-2.7l0,0l0.2-0.5c0.2-0.4,0.3-0.7,0.3-0.9v-0.1v-0.1c2.5-7.6,4-15.6,5-21.7
					c0.3-2,0.6-3.9,0.9-6.3c0-0.4,0.1-0.8,0.2-1.3c0.1-0.5,0.2-1.5,0.2-1.5c0.3-2.5,0.6-5,0.9-7.4c0.3-2.5,0.6-5,0.9-7.5
					c1.9-14.7,4.6-30.4,11.3-45.2c5.8-12.9,16.9-23,31.2-28.6c5.5-2.1,11.5-3.3,17.5-3.3c12.4,0,23.4,4.6,31,13.1
					c0.9,1,1.6,1.9,2.3,2.9l0.2,0.3l0,0c0.3,0.4,0.6,0.8,0.9,1.3c0.3,0.4,0.8,1.1,1.2,1.7c0.5,0.5,0.9,1,1.3,1.5
					c0.3,0.3,0.5,0.7,0.7,0.9l0.1,0.1c0.5,0.6,1,1.1,1.6,1.7c0.6,0.3,1.2,0.7,1.6,1c0.2,0.1,0.4,0.2,0.5,0.3l0.1,0.1
					c0.1,0.1,0.2,0.1,0.4,0.2c0.1,0.1,0.2,0.1,0.3,0.2c0.3,0.1,0.6,0.2,0.9,0.3c1.3,0.5,2.4,0.9,3.5,1.1c0.1,0,0.2,0,0.3,0.1
					c0.3,0,0.7,0,1.1,0.1c0.6,0.1,1.1,0.1,1.8,0.1c0.2-0.1,0.4-0.1,0.7-0.2h0.1c0.2-0.1,0.3-0.2,0.5-0.3c0.2-0.2,0.3-0.3,0.5-0.5
					c0.1-0.2,0.3-0.5,0.5-0.7c0.6-0.8,1.1-1.6,1.6-2.5c0.5-0.8,0.9-1.5,1.3-2.2c1.5-3,2.9-5.7,4.2-8.6l0.1-0.2l0.1-0.1
					c0.2-0.4,0.5-1,0.7-1.6c1.2-3.8,2.2-7,3-10.4c1-4.6,2-9.3,3-13.8c4-19.1,8.2-38.9,16.5-56.9c5.3-12,12.5-25.5,24.7-34.9
					C311.3,69,323.5,65,335,65c1.2,0,2.3,0,3.4,0.1c16.5,1.1,30.3,9.8,40,25.1c7.5,11.9,12,25.9,16.4,39.5l1.1,3.4
					c6,18.1,10.6,36.8,15,54.9c2.5,10,5,20.3,7.7,30.3c2.9,10.9,6,21.6,9.2,31.8l0.1,0.2c2,6.3,4.1,12.8,6.2,19.2c1,3,2,6,3.1,8.9
					c0.5,1.2,1,2.4,1.3,3.5c0,0.1,0.1,0.2,0.1,0.3c3.4,8.3,7.9,16.5,13.7,25.1c0.3,0.5,0.5,0.8,0.7,1l0.6,0.8c0.4,0.5,0.7,0.9,1,1.4
					c0.5,0.7,1,1.4,1.5,2l0.1,0.2c1.9,2.4,3.8,4.5,5.8,6.8c4.9,5.3,10.2,10.4,16,15.1c3.8,3.2,6,7.7,6.5,13.1
					c0.6,6.7-1.7,13.8-5.9,18.7C475.3,370.8,470.3,373.1,464.7,373.1z M195.4,225.6L195.4,225.6
					C195.4,225.6,195.4,225.5,195.4,225.6L195.4,225.6z"/>
			</g>
		</g>
	</g>
</g>
</svg>
