<?xml version="1.0" encoding="utf-8"?>
<!-- Generator: Adobe Illustrator 26.2.1, SVG Export Plug-In . SVG Version: 6.00 Build 0)  -->
<svg version="1.1" id="Layer_1" xmlns="http://www.w3.org/2000/svg" xmlns:xlink="http://www.w3.org/1999/xlink" x="0px" y="0px"
	 viewBox="0 0 512 512" style="enable-background:new 0 0 512 512;" xml:space="preserve">
<style type="text/css">
	.st0{fill:#565656;}
</style>
<path class="st0" d="M64,400c0,8.8,7.2,16,16,16h400c17.7,0,32,14.3,32,32s-14.3,32-32,32H80c-44.2,0-80-35.8-80-80V64
	c0-17.7,14.3-32,32-32s32,14.3,32,32V400z M342.6,278.6c-12.5,12.5-32.7,12.5-45.2,0L240,221.3l-89.4,89.3
	c-12.5,12.5-32.7,12.5-45.2,0c-12.5-12.5-12.5-32.7,0-45.2l112-112c12.5-12.5,32.7-12.5,45.2,0l57.4,57.3l105.4-105.3
	c12.5-12.5,32.7-12.5,45.2,0c12.5,12.5,12.5,32.7,0,45.2L342.6,278.6z"/>
</svg>
