<?xml version="1.0" encoding="utf-8"?>
<!-- Generator: Adobe Illustrator 26.2.1, SVG Export Plug-In . SVG Version: 6.00 Build 0)  -->
<svg version="1.1" id="Layer_1" xmlns="http://www.w3.org/2000/svg" xmlns:xlink="http://www.w3.org/1999/xlink" x="0px" y="0px"
	 viewBox="0 0 512 512" style="enable-background:new 0 0 512 512;" xml:space="preserve">
<style type="text/css">
	.st0{fill:#565656;}
</style>
<path class="st0" d="M32,32c17.7,0,32,14.3,32,32v336c0,8.8,7.2,16,16,16h400c17.7,0,32,14.3,32,32s-14.3,32-32,32H80
	c-44.2,0-80-35.8-80-80V64C0,46.3,14.3,32,32,32z M160,224c17.7,0,32,14.3,32,32v64c0,17.7-14.3,32-32,32s-32-14.3-32-32v-64
	C128,238.3,142.3,224,160,224z M288,320c0,17.7-14.3,32-32,32s-32-14.3-32-32V160c0-17.7,14.3-32,32-32s32,14.3,32,32V320z M352,192
	c17.7,0,32,14.3,32,32v96c0,17.7-14.3,32-32,32s-32-14.3-32-32v-96C320,206.3,334.3,192,352,192z M480,320c0,17.7-14.3,32-32,32
	s-32-14.3-32-32V96c0-17.7,14.3-32,32-32s32,14.3,32,32V320z"/>
</svg>
