<?xml version="1.0" encoding="utf-8"?>
<!-- Generator: Adobe Illustrator 26.2.1, SVG Export Plug-In . SVG Version: 6.00 Build 0)  -->
<svg version="1.1" id="Layer_1" xmlns="http://www.w3.org/2000/svg" xmlns:xlink="http://www.w3.org/1999/xlink" x="0px" y="0px"
	 viewBox="0 0 512 512" style="enable-background:new 0 0 512 512;" xml:space="preserve">
<style type="text/css">
	.st0{fill:#565656;}
</style>
<path class="st0" d="M34.4,32.1C51.2,33.3,64,47.8,64,64.6V400c0,8.8,7.2,16,16,16h399.4c16.4,0,31.4,13.3,32.6,29.7
	c1.3,18.7-13.5,34.3-31.9,34.3H80c-44.2,0-80-35.8-80-80V64C0,45.5,15.6,30.7,34.4,32.1z M190.3,353L190.3,353
	c-17.7,0-32-14.3-32-32l0,0c0-17.7,14.3-32,32-32l0,0c17.7,0,32,14.3,32,32l0,0C222.3,338.7,207.9,353,190.3,353z M142,240L142,240
	c-17.7,0-32-14.3-32-32l0,0c0-17.7,14.3-32,32-32l0,0c17.7,0,32,14.3,32,32l0,0C174,225.7,159.7,240,142,240z M288,231L288,231
	c-17.7,0-32-14.3-32-32l0,0c0-17.7,14.3-32,32-32l0,0c17.7,0,32,14.3,32,32l0,0C320,216.7,305.7,231,288,231z M320,117L320,117
	c-17.7,0-32-14.3-32-32l0,0c0-17.7,14.3-32,32-32l0,0c17.7,0,32,14.3,32,32l0,0C352,102.7,337.7,117,320,117z M441,187L441,187
	c-17.7,0-32-14.3-32-32l0,0c0-17.7,14.3-32,32-32l0,0c17.7,0,32,14.3,32,32l0,0C473,172.7,458.7,187,441,187z"/>
</svg>
