<?xml version="1.0" encoding="utf-8"?>
<!-- Generator: Adobe Illustrator 26.2.1, SVG Export Plug-In . SVG Version: 6.00 Build 0)  -->
<svg version="1.1" id="Layer_1" xmlns="http://www.w3.org/2000/svg" xmlns:xlink="http://www.w3.org/1999/xlink" x="0px" y="0px"
	 viewBox="0 0 512 512" style="enable-background:new 0 0 512 512;" xml:space="preserve">
<style type="text/css">
	.st0{fill-rule:evenodd;clip-rule:evenodd;fill:#3F4F75;}
	.st1{fill-rule:evenodd;clip-rule:evenodd;fill:#80CFBE;}
	.st2{fill-rule:evenodd;clip-rule:evenodd;fill:#FFFFFF;}
</style>
<g>
	<path class="st0" d="M158.6,492.3c-5.2,0-9.4-4.3-9.4-9.5l0,0V388c0-5.2,4.2-9.5,9.4-9.5s9.4,4.2,9.4,9.5v94.8
		C168,488,163.8,492.3,158.6,492.3L158.6,492.3 M355.5,492.3c-5.2,0-9.4-4.3-9.4-9.5l0,0V388c0-5.2,4.2-9.5,9.4-9.5
		c5.2,0,9.4,4.2,9.4,9.5v94.8C364.9,488,360.7,492.3,355.5,492.3L355.5,492.3 M111.7,452.6c0,11.4-8.4,20.7-18.8,20.7
		c-10.4,0-18.8-9.3-18.8-20.7v-15.5c0-11.4,8.4-20.7,18.8-20.7c10.4,0,18.8,9.3,18.8,20.7V452.6z M92.9,397.5
		c-6.9,0-13.7,2.1-19.5,5.9c-1.4-3.5-4.9-5.9-8.7-5.9c-5.2,0-9.4,4.3-9.4,9.5v94.8c0,5.2,4.2,9.5,9.4,9.5c5.2,0,9.4-4.3,9.4-9.5l0,0
		v-14.9c5.6,3.6,12.1,5.4,18.8,5.4c20.7,0,37.5-18.2,37.5-40.6v-13.5C130.4,415.6,113.6,397.5,92.9,397.5z M243,452.6
		c0,11.4-8.4,20.7-18.8,20.7c-10.4,0-18.8-9.3-18.8-20.7v-15.5c0-11.4,8.4-20.7,18.8-20.7c10.4,0,18.8,9.3,18.8,20.7V452.6z
		 M224.2,397.5c-20.7,0-37.5,18.2-37.5,40.6v13.5c0,22.4,16.8,40.6,37.5,40.6s37.5-18.2,37.5-40.6v-13.5
		C261.7,415.6,244.9,397.5,224.2,397.5z M318,473.3c-10.3,0-18.8-8.5-18.8-19v-37.9H318c5.2,0,9.4-4.3,9.4-9.5s-4.2-9.5-9.4-9.5
		h-18.8v-9.5c0-5.2-4.2-9.5-9.4-9.5c-5.2,0-9.4,4.3-9.4,9.5l0,0v66.4c0,20.9,16.8,37.9,37.5,37.9c5.2,0,9.4-4.3,9.4-9.5l0,0
		C327.4,477.6,323.2,473.3,318,473.3 M449.7,398.2c-4.7-2-10.2,0.1-12.3,4.9v0.1L418,449.1l-19.4-45.9c-2-4.8-7.5-7-12.2-5h-0.1
		c-4.8,2.1-7,7.7-4.9,12.4l26.5,62.5l-3.2,7.4c-2.8,6.9-9.4,11.5-16.9,11.7c-5.2,0.2-9.3,4.5-9.2,9.7c0.1,5.1,4.3,9.2,9.4,9.3h0.2
		c14.9-0.4,28.1-9.5,33.7-23.3l32.8-77.3C456.7,405.9,454.5,400.3,449.7,398.2"/>
</g>
<g>
	<path class="st0" d="M410.7,374.2H100.1c-16.4,0-29.7-13.7-29.7-30.7V31.4c0-17,13.3-30.7,29.7-30.7h310.6
		c16.4,0,29.7,13.7,29.7,30.7v312.1C440.4,360.5,427.1,374.2,410.7,374.2"/>
	<path class="st1" d="M162.8,146.5c0.5,0.7,0.9,1.4,1.2,2.1c-1-0.9-2.2-1.6-3.5-2c-0.3-0.6-0.8-1.1-1.4-1.2h-0.2
		c-0.2-0.2-0.3-0.4-0.5-0.7C160,145.2,161.5,145.8,162.8,146.5 M151.7,161.7c0.9-0.1,1.9-0.2,2.8-0.6c0.2,0.2,0.4,0.4,0.6,0.6
		c-1.2,0.3-2.4,0.4-3.5,0.2L151.7,161.7 M155.4,150.4c0.4,0.2,0.8,0.3,1.2,0.4c0,0.3,0.1,0.6,0.1,0.9c-0.7-0.9-1.9-0.9-2.7-0.4
		l-0.2-0.6l1.3-0.4C155.1,150.2,155.2,150.3,155.4,150.4 M149.5,151.5c0.1,0.7,0.3,1.4,0.5,2C149.6,153.1,149.4,152.4,149.5,151.5
		 M161,156.8c-0.2-0.4-0.4-0.7-0.6-1.1c0.2-0.3,0.3-0.6,0.4-1C161.1,155.4,161.1,156.1,161,156.8 M166.8,144.2
		c-0.3-0.2-0.6-0.4-0.9-0.6c-1-1.3-2.2-2.5-3.6-3.5c-5.8-4.2-14.7-4.6-19,2c-0.2,0.3-0.4,0.7-0.6,1c-2.8,2.4-4.6,5.7-5.3,9.3
		c-0.9,0.3-1.4,1.1-1.4,2c-0.1,4.2,2,7.5,5.2,9.7c3.2,2.9,8.1,4.1,12.8,4.2c7,0.2,11.8-3.6,13.9-8.7l0.1-0.1
		C171.7,154.8,172.1,148,166.8,144.2 M162.8,85.1c0.5,0.7,0.9,1.4,1.2,2.1c-1-0.9-2.2-1.6-3.5-2c-0.3-0.6-0.8-1.1-1.4-1.2h-0.2
		c-0.2-0.2-0.3-0.4-0.5-0.6C160,83.7,161.5,84.3,162.8,85.1 M151.7,100.2c0.9-0.1,1.9-0.2,2.8-0.6c0.2,0.2,0.4,0.4,0.6,0.6
		c-1.1,0.3-2.4,0.4-3.5,0.2L151.7,100.2 M155.4,88.9c0.4,0.2,0.8,0.3,1.2,0.4c0,0.3,0.1,0.6,0.1,0.9c-0.7-0.9-1.9-0.9-2.7-0.4
		l-0.2-0.6l1.3-0.4C155.1,88.8,155.2,88.8,155.4,88.9 M149.5,90c0,0.3,0.1,0.5,0.2,0.8c0.1,0.4,0.2,0.8,0.4,1.2
		C149.6,91.6,149.4,90.9,149.5,90 M161,95.3l-0.6-1.1c0.2-0.3,0.3-0.6,0.4-1C161.1,94,161.1,94.7,161,95.3 M166.8,82.7
		c-0.3-0.2-0.6-0.4-0.9-0.6c-1-1.3-2.2-2.5-3.6-3.5c-5.8-4.2-14.7-4.6-19,2c-0.2,0.3-0.4,0.7-0.6,1c-2.8,2.4-4.6,5.7-5.3,9.3
		c-0.9,0.3-1.4,1.1-1.4,2c-0.1,4.2,2,7.5,5.2,9.7c3.2,2.9,8.1,4.1,12.8,4.2c7,0.2,11.8-3.6,13.9-8.7L168,98
		C171.7,93.3,172.1,86.5,166.8,82.7 M297.9,146.5c0.5,0.7,0.9,1.4,1.2,2.1c-1-0.9-2.2-1.6-3.5-2c-0.3-0.6-0.8-1.1-1.4-1.2H294
		c-0.2-0.2-0.3-0.4-0.5-0.7C295.1,145.2,296.6,145.8,297.9,146.5 M286.8,161.7c0.9-0.1,1.9-0.2,2.8-0.6c0.2,0.2,0.4,0.4,0.6,0.6
		c-1.2,0.3-2.4,0.4-3.5,0.2L286.8,161.7 M290.4,150.4c0.4,0.2,0.8,0.3,1.2,0.4c0,0.3,0.1,0.6,0,0.9c-0.6-0.9-1.9-0.9-2.7-0.4
		l-0.2-0.6l1.3-0.4C290.2,150.2,290.3,150.3,290.4,150.4 M284.6,151.5c0.1,0.7,0.3,1.4,0.5,2C284.7,153.1,284.5,152.4,284.6,151.5
		 M296.1,156.8c-0.2-0.4-0.4-0.7-0.6-1.1c0.2-0.3,0.3-0.6,0.5-1C296.2,155.4,296.2,156.1,296.1,156.8 M301.9,144.2
		c-0.3-0.2-0.6-0.4-0.9-0.6c-1-1.3-2.2-2.5-3.6-3.5c-5.8-4.2-14.7-4.6-19,2c-0.2,0.3-0.4,0.7-0.6,1c-2.8,2.4-4.6,5.7-5.3,9.3
		c-0.9,0.3-1.4,1.1-1.4,2c-0.1,4.2,2,7.5,5.2,9.7c3.2,2.9,8.1,4.1,12.8,4.2c7,0.2,11.8-3.6,13.9-8.7l0.1-0.1
		C306.8,154.8,307.2,148,301.9,144.2 M297.9,85.1c0.5,0.7,0.9,1.4,1.2,2.1c-1-0.9-2.2-1.6-3.5-2c-0.3-0.6-0.8-1.1-1.4-1.2H294
		c-0.2-0.2-0.3-0.4-0.5-0.6C295.1,83.7,296.6,84.3,297.9,85.1 M286.8,100.2c0.9-0.1,1.9-0.2,2.8-0.6c0.2,0.2,0.4,0.4,0.6,0.6
		c-1.1,0.3-2.4,0.4-3.5,0.2L286.8,100.2 M290.4,88.9c0.4,0.2,0.8,0.3,1.2,0.4c0,0.3,0.1,0.6,0,0.9c-0.6-0.9-1.9-0.9-2.7-0.4
		l-0.2-0.6l1.3-0.4C290.2,88.8,290.3,88.8,290.4,88.9 M284.6,90.1c0.1,0.7,0.3,1.4,0.5,2C284.7,91.6,284.5,91,284.6,90.1
		 M296.1,95.3l-0.6-1.1c0.2-0.3,0.3-0.6,0.5-1C296.2,94,296.2,94.7,296.1,95.3 M301.9,82.7c-0.3-0.2-0.6-0.4-0.9-0.6
		c-1-1.3-2.2-2.5-3.6-3.5c-5.8-4.2-14.7-4.6-19,2c-0.2,0.3-0.4,0.7-0.6,1c-2.8,2.4-4.6,5.7-5.3,9.3c-0.9,0.3-1.4,1.1-1.4,2
		c-0.1,4.2,2,7.5,5.2,9.7c3.2,2.9,8.1,4.1,12.8,4.2c7,0.2,11.8-3.6,13.9-8.7l0.1-0.1C306.8,93.3,307.2,86.5,301.9,82.7"/>
	<path class="st2" d="M156.9,202.2c-9.1,0-16.4,7.5-16.4,16.7v66.7c0,9.2,7.3,16.7,16.4,16.7c9.1,0,16.4-7.5,16.4-16.7v-66.7
		C173.3,209.7,166,202.2,156.9,202.2 M288.1,202.2c-9.1,0-16.4,7.5-16.4,16.7v66.7c0,9.2,7.3,16.7,16.4,16.7s16.4-7.5,16.4-16.7
		v-66.7C304.5,209.7,297.2,202.2,288.1,202.2 M222.5,135.4c-9.1,0-16.4,7.5-16.4,16.7v133.5c0,9.2,7.3,16.7,16.4,16.7
		s16.4-7.5,16.4-16.7V152.1C238.9,142.9,231.6,135.4,222.5,135.4 M353.8,135.4c-9.1,0-16.4,7.5-16.4,16.7v133.5
		c0,9.2,7.3,16.7,16.4,16.7s16.4-7.5,16.4-16.7V152.1C370.2,142.9,362.8,135.4,353.8,135.4"/>
	<path class="st1" d="M364.1,98.5c-1,1.5-2.1,2.6-3.4,3.2c0.8-1.3,1.6-2.8,2.3-4.4c0.2-0.3,0.3-0.7,0.5-1c0.5-0.5,0.8-1.2,0.6-1.8
		v-0.1c1-0.8,1.7-2.2,2-3.7l0.2-0.3C366.4,93.2,365.7,96.1,364.1,98.5 M342.5,93.1c-0.1-0.7-0.1-1.4-0.1-2.1
		c0.6,2.4,1.6,4.7,2.6,6.8c0.6,1.5,1.3,3.1,2.2,4.3c-0.5-0.3-0.9-0.6-1.3-1C343.8,99,342.8,95.9,342.5,93.1 M353.8,89.8
		c-0.1-1.5-0.1-3.1,0.1-4.6c0.2,0.1,0.4,0.2,0.6,0.3l0.3,0.2C355,87.1,355,89.1,353.8,89.8 M368.6,83.4c0-1-0.5-1.9-1.3-2.5
		c-1.4-2.3-3.3-4.3-5.5-5.8c-3.1-2.1-6.6-3.1-8.8-0.4c-0.8-0.1-1.6-0.1-2.5-0.1c-0.5,0-1,0-1.4,0.1c-2.6-1-5.4-1.1-6.6,2.3
		c-0.5,1.3-0.7,2.7-0.8,4.1c-0.5,0.4-0.9,0.8-1.3,1.3c-2.5,3.6-2.2,10.1-1.2,14.1c1.7,6.9,9.1,12.4,15.5,10.3c0.5-0.1,1-0.3,1.5-0.6
		c3.4,0.6,7.1-0.5,10.1-4.1C370.7,96.7,371.2,89.4,368.6,83.4 M232.9,98.5c-1,1.5-2.1,2.6-3.4,3.2c0.8-1.3,1.6-2.8,2.3-4.4
		c0.2-0.3,0.3-0.7,0.4-1c0.5-0.5,0.8-1.2,0.6-1.8v-0.1c1-0.8,1.7-2.2,2-3.7l0.2-0.3C235.2,93.2,234.5,96.1,232.9,98.5 M211.4,93.1
		c-0.1-0.7-0.1-1.4-0.1-2.1c0.6,2.4,1.6,4.7,2.6,6.8c0.6,1.5,1.3,3.1,2.2,4.3c-0.5-0.3-0.9-0.6-1.3-1
		C212.6,99,211.6,95.9,211.4,93.1 M222.6,89.8c-0.1-1.5-0.1-3.1,0.1-4.6c0.2,0.1,0.4,0.2,0.6,0.3c0.1,0.1,0.2,0.1,0.3,0.2
		C223.9,87.1,223.8,89.1,222.6,89.8 M237.4,83.4c0-1-0.5-1.9-1.3-2.5c-1.4-2.3-3.3-4.3-5.5-5.8c-3.1-2.1-6.6-3.1-8.8-0.4
		c-0.8-0.1-1.6-0.1-2.5-0.1c-0.5,0-1,0-1.4,0.1c-2.6-1-5.4-1.1-6.6,2.3c-0.5,1.3-0.7,2.7-0.8,4.1c-0.5,0.4-0.9,0.8-1.3,1.3
		c-2.5,3.6-2.2,10.1-1.2,14.1c1.7,6.9,9.1,12.4,15.5,10.3c0.5-0.1,1-0.3,1.5-0.6c3.4,0.6,7.1-0.5,10.1-4.1
		C239.5,96.7,240,89.4,237.4,83.4"/>
</g>
</svg>
